<svg width="260" height="260" viewBox="0 0 260 260" fill="none" xmlns="http://www.w3.org/2000/svg">
<path d="M65.0003 184.167H119.167V162.5H65.0003V184.167ZM173.334 184.167H195V162.5H173.334V184.167ZM65.0003 140.833H119.167V119.167H65.0003V140.833ZM173.334 140.833H195V75.8334H173.334V140.833ZM65.0003 97.5H119.167V75.8334H65.0003V97.5ZM43.3337 227.5C37.3753 227.5 32.2728 225.377 28.0262 221.13C23.7795 216.883 21.6598 211.784 21.667 205.833V54.1667C21.667 48.2084 23.7903 43.1059 28.037 38.8592C32.2837 34.6125 37.3826 32.4928 43.3337 32.5H216.667C222.625 32.5 227.728 34.6234 231.975 38.87C236.221 43.1167 238.341 48.2156 238.334 54.1667V205.833C238.334 211.792 236.21 216.894 231.964 221.141C227.717 225.388 222.618 227.507 216.667 227.5H43.3337ZM43.3337 205.833H216.667V54.1667H43.3337V205.833Z" fill="#0A75AD"/>
</svg>
